<svg width="438" height="389" viewBox="0 0 438 389" fill="none" xmlns="http://www.w3.org/2000/svg">
<path d="M242.574 300.082C240.5 298.881 238.849 297.226 237.675 295.315C236.533 293.866 235.661 292.165 235.154 290.268L192.136 129.308C191.972 128.695 191.151 128.586 190.834 129.136L74.3928 331.339L99.0852 374.218C104.162 383.034 113.544 388.465 123.697 388.465H314.028C324.181 388.465 333.563 383.034 338.639 374.218L433.805 208.961C438.881 200.145 438.881 189.284 433.805 180.469L380.682 88.2196L261.626 294.964C257.775 301.652 249.245 303.943 242.574 300.082Z" fill="url(#paint0_linear_233_363)"/>
<path d="M364.578 60.2542L254.774 250.932C254.457 251.482 253.636 251.373 253.472 250.76L210.84 91.2415C210.734 90.8449 210.612 90.4569 210.475 90.0779C210.453 90.0189 210.439 89.9575 210.433 89.895C210.01 85.5568 207.576 81.4801 203.524 79.1345C196.853 75.2733 188.324 77.5647 184.472 84.2525L58.2886 303.374L3.91975 208.961C-1.15685 200.145 -1.15684 189.284 3.91975 180.468L99.0852 15.2111C104.162 6.39549 113.544 0.964844 123.697 0.964844L314.028 0.964852C324.181 0.964852 333.563 6.39551 338.639 15.2112L364.578 60.2542Z" fill="url(#paint1_linear_233_363)"/>
<defs>
<linearGradient id="paint0_linear_233_363" x1="66.9079" y1="334.54" x2="361.033" y2="55.9738" gradientUnits="userSpaceOnUse">
<stop stop-color="#009F6F"/>
<stop offset="1" stop-color="#69B42D"/>
</linearGradient>
<linearGradient id="paint1_linear_233_363" x1="66.9079" y1="334.54" x2="361.033" y2="55.9738" gradientUnits="userSpaceOnUse">
<stop stop-color="#009F6F"/>
<stop offset="1" stop-color="#69B42D"/>
</linearGradient>
</defs>
</svg>
