<svg xmlns="http://www.w3.org/2000/svg" version="1.1" xmlns:xlink="http://www.w3.org/1999/xlink" xmlns:svgjs="http://svgjs.com/svgjs" width="512" height="512" x="0" y="0" viewBox="0 0 64 64" style="enable-background:new 0 0 512 512" xml:space="preserve"><g><path d="M5 38a1 1 0 0 0-1 1v23a1 1 0 0 0 1 1h9a1 1 0 0 0 1-1V39a1 1 0 0 0-1-1zm8 23H6V40h7zM20 44a1 1 0 0 0-1 1v17a1 1 0 0 0 1 1h9a1 1 0 0 0 1-1V45a1 1 0 0 0-1-1zm8 17h-7V46h7zM35 49a1 1 0 0 0-1 1v12a1 1 0 0 0 1 1h9a1 1 0 0 0 1-1V50a1 1 0 0 0-1-1zm8 12h-7V51h7zM49 55v7a1 1 0 0 0 1 1h9a1 1 0 0 0 1-1v-7a1 1 0 0 0-1-1h-9a1 1 0 0 0-1 1zm2 1h7v5h-7zM9.5 35a8 8 0 1 0-8-8 8.009 8.009 0 0 0 8 8zm0-14a6 6 0 1 1-6 6 6.006 6.006 0 0 1 6-6z" fill="#CA7D41" data-original="#000000" opacity="1"></path><path d="M10 29.124H9a.5.5 0 0 1-.5-.5h-2a2.5 2.5 0 0 0 2 2.449v1.051h2v-1.051a2.5 2.5 0 0 0-.5-4.949H9a.5.5 0 1 1 0-1h1a.5.5 0 0 1 .5.5h2a2.5 2.5 0 0 0-2-2.45v-1.05h-2v1.05a2.5 2.5 0 0 0 .5 4.95h1a.5.5 0 0 1 0 1zM49.03 46.736l.927 1.772 5.013-2.622a1 1 0 0 0 .423-1.349l-2.623-5.013-1.77.927 1.624 3.1A128.179 128.179 0 0 1 19.511 31.14l-1.022 1.719a130.083 130.083 0 0 0 33.143 12.516zM62.471 9.118l-15-8a1 1 0 0 0-.942 0l-15 8A1 1 0 0 0 31 10v16a1 1 0 0 0 .529.882l15 8a1 1 0 0 0 .942 0l15-8A1 1 0 0 0 63 26V10a1 1 0 0 0-.529-.882zM46 32.333 33 25.4V11.773l13 7.857zM47 17.9l-12.977-7.846L47 3.133l12.977 6.921zm14 7.5-13 6.933V19.63l13-7.857z" fill="#CA7D41" data-original="#000000" opacity="1"></path></g></svg>