<svg xmlns="http://www.w3.org/2000/svg" version="1.1" xmlns:xlink="http://www.w3.org/1999/xlink" xmlns:svgjs="http://svgjs.com/svgjs" width="512" height="512" x="0" y="0" viewBox="0 0 512 512" style="enable-background:new 0 0 512 512" xml:space="preserve" class=""><g><path d="M400 496a8 8 0 0 0 8-8v-24h24a8 8 0 0 0 8-8V88a8 8 0 0 0-2.343-5.657l-64-64A8 8 0 0 0 368 16H112a8 8 0 0 0-8 8v24H80a8 8 0 0 0-8 8v432a8 8 0 0 0 8 8zM376 43.313 412.687 80H376zM120 32h240v56a8 8 0 0 0 8 8h56v352H120zM88 64h16v392a8 8 0 0 0 8 8h280v16H88z" fill="#CA7D41" data-original="#000000" opacity="1" class=""></path><path d="M240 96h80a8 8 0 0 0 0-16h-80a8 8 0 0 0 0 16zM192 144h80a8 8 0 0 0 0-16h-80a8 8 0 0 0 0 16zM296 136a8 8 0 0 0 8 8h80a8 8 0 0 0 0-16h-80a8 8 0 0 0-8 8zM160 192h48a8 8 0 0 0 0-16h-48a8 8 0 0 0 0 16zM240 368h-80a8 8 0 0 0 0 16h80a8 8 0 0 0 0-16zM160 336h32a8 8 0 0 0 0-16h-32a8 8 0 0 0 0 16zM256 320h-32a8 8 0 0 0 0 16h32a8 8 0 0 0 0-16zM384 224h-24a8 8 0 0 0 0 16h24a8 8 0 0 0 0-16zM384 176H240a8 8 0 0 0 0 16h144a8 8 0 0 0 0-16zM272 272H160a8 8 0 0 0 0 16h112a8 8 0 0 0 0-16zM160 240h168a8 8 0 0 0 0-16H160a8 8 0 0 0 0 16zM400 328v-8a56 56 0 0 0-112 0v8a8 8 0 0 0-8 8v88a8 8 0 0 0 8 8h112a8 8 0 0 0 8-8v-88a8 8 0 0 0-8-8zm-96-8a40 40 0 0 1 80 0v8h-16v-8a24 24 0 0 0-48 0v8h-16zm48 8h-16v-8a8 8 0 0 1 16 0zm40 88h-96v-72h96z" fill="#CA7D41" data-original="#000000" opacity="1" class=""></path></g></svg>