<svg xmlns="http://www.w3.org/2000/svg" version="1.1" xmlns:xlink="http://www.w3.org/1999/xlink" xmlns:svgjs="http://svgjs.com/svgjs" width="512" height="512" x="0" y="0" viewBox="0 0 512 512" style="enable-background:new 0 0 512 512" xml:space="preserve" class=""><g><path d="m114.57 202.301 116.343-.001-6.531 19.968a11.453 11.453 0 0 0 4.168 12.862 11.454 11.454 0 0 0 13.519-.014l27.669-20.185 27.669 20.184a11.46 11.46 0 0 0 6.769 2.215c2.365 0 4.73-.733 6.75-2.201a11.45 11.45 0 0 0 4.167-12.863l-10.646-32.553 27.746-20.078a11.454 11.454 0 0 0 4.191-12.856 11.452 11.452 0 0 0-10.919-7.935h-.026l-34.25.065-10.521-32.594a11.454 11.454 0 0 0-10.93-7.957c-5 0-9.392 3.197-10.931 7.958l-7.617 23.598a85.142 85.142 0 0 0-28.988-18.003c10.688-8.716 17.529-21.98 17.529-36.816 0-26.189-21.307-47.496-47.496-47.496s-47.496 21.307-47.496 47.496c0 14.848 6.853 28.121 17.556 36.837-29.887 11.029-52.109 38.137-55.681 71.518a8 8 0 0 0 7.956 8.851zm155.169-67.762 7.237 22.419a11.449 11.449 0 0 0 10.931 7.958h.022l23.558-.045-19.085 13.81a11.45 11.45 0 0 0-4.184 12.876l7.323 22.392-19.032-13.884a11.447 11.447 0 0 0-13.539 0l-19.033 13.884 5.634-17.226.023-.07 1.667-5.096a11.45 11.45 0 0 0-4.183-12.876l-19.085-13.811 23.558.045h.022c3.774 0 7.198-1.82 9.312-4.758a8.67 8.67 0 0 0 .28-.417 11.512 11.512 0 0 0 1.338-2.782zM160.741 85.095c0-17.367 14.129-31.496 31.496-31.496s31.496 14.129 31.496 31.496c0 17.359-14.116 31.482-31.472 31.495h-.045c-17.357-.011-31.475-14.135-31.475-31.495zm31.474 47.495.021.001.024-.001c16.743.006 32.484 5.817 44.955 16.298l-23.176-.044h-.026a11.454 11.454 0 0 0-10.922 7.936 11.453 11.453 0 0 0 4.19 12.855l23.03 16.665-106.27.001c7.412-31.166 35.297-53.701 68.174-53.711zm137.864 119.905a8 8 0 0 1-8 8H114.623a8 8 0 0 1 0-16h207.456a8 8 0 0 1 8 8zm137.942 119.022c5.242-10.37 3.071-22.68-5.401-30.633l-9.852-9.246c-1.537-1.443-2.398-2.935-2.879-4.988l-3.082-13.155c-2.649-11.313-12.225-19.349-23.828-19.995l-13.489-.75c-2.106-.117-3.725-.706-5.412-1.969l-8.515-6.373V74.494a16.74 16.74 0 0 0-1.349-6.652 8.038 8.038 0 0 0-.422-.889 16.95 16.95 0 0 0-3.162-4.369l-49.651-49.65a16.937 16.937 0 0 0-4.373-3.164 8.06 8.06 0 0 0-.88-.418A16.736 16.736 0 0 0 329.069 8H57.983C48.696 8 41.14 15.556 41.14 24.843v420.939c0 9.287 7.556 16.843 16.843 16.843H300.14l-4.619 9.921a9.573 9.573 0 0 0 1.084 9.888 9.558 9.558 0 0 0 9.271 3.616l18.739-3.273 9.558 16.448a9.565 9.565 0 0 0 8.735 4.765 9.57 9.57 0 0 0 8.265-5.538l18.771-40.318 4.885-1.476c2.019-.61 3.741-.61 5.759 0l4.884 1.476 18.771 40.318a9.57 9.57 0 0 0 8.709 5.547 9.567 9.567 0 0 0 8.292-4.776l9.558-16.447 18.734 3.273a9.566 9.566 0 0 0 9.274-3.616 9.569 9.569 0 0 0 1.083-9.89l-18.817-40.417 5.901-2.527c10.682-4.575 16.932-15.4 15.552-26.938l-1.603-13.416c-.25-2.094.049-3.791 1-5.672zM368.248 62.831h-27.517V35.314zM57.983 446.625a.865.865 0 0 1-.843-.843V24.843c0-.449.394-.843.843-.843h266.748v42.41c0 6.849 5.572 12.421 12.421 12.421h42.41v198.706c-6.058-.44-12.228 1.272-17.407 5.148l-10.817 8.096c-1.688 1.264-3.307 1.853-5.412 1.97l-13.491.75a26.717 26.717 0 0 0-3.573.46 7.987 7.987 0 0 0-6.785-3.775H114.623a8 8 0 0 0 0 16h196.916a26.233 26.233 0 0 0-2.93 7.309l-3.082 13.155c-.481 2.053-1.342 3.544-2.879 4.988l-4.518 4.24H114.623a8 8 0 0 0 0 16h171.194c-2.041 6.322-1.608 13.336 1.578 19.639l5.082 10.053H114.623a8 8 0 0 0 0 16h178.872l-.609 5.092c-1.379 11.538 4.87 22.363 15.552 26.938l5.901 2.527-6.75 14.498zm283.862 33.956-6.197-10.664a8.003 8.003 0 0 0-8.294-3.861l-12.15 2.123 12.225-26.258 5.237 8.008c4.233 6.472 10.853 10.523 18.085 11.522zm86.217-14.525a7.997 7.997 0 0 0-8.294 3.861l-6.197 10.665-8.911-19.141c7.234-.999 13.856-5.04 18.09-11.513l5.237-8.008 12.225 26.258zm25.68-101.758-6.095 12.058c-2.381 4.71-3.234 9.547-2.607 14.789l1.603 13.416c.537 4.494-1.804 8.549-5.964 10.331l-12.421 5.319c-4.851 2.078-8.614 5.236-11.502 9.653l-7.395 11.307c-2.477 3.788-6.876 5.389-11.21 4.08l-12.932-3.908c-5.051-1.527-9.964-1.526-15.017 0l-12.934 3.909c-4.333 1.309-8.733-.292-11.209-4.08l-7.395-11.308c-2.889-4.417-6.652-7.575-11.504-9.653l-12.42-5.319c-4.16-1.782-6.501-5.837-5.964-10.331l1.604-13.416c.626-5.24-.227-10.077-2.607-14.789l-6.095-12.058c-2.042-4.039-1.229-8.65 2.071-11.748l9.852-9.246c3.849-3.612 6.305-7.866 7.508-13.004l3.082-13.155c1.032-4.407 4.62-7.417 9.139-7.668l13.49-.75c5.271-.293 9.886-1.973 14.111-5.136l10.817-8.097c1.812-1.356 3.888-2.034 5.964-2.034s4.153.678 5.964 2.034l10.816 8.097c4.225 3.162 8.84 4.842 14.111 5.136l13.489.75c4.52.251 8.107 3.261 9.139 7.668l3.082 13.155c1.204 5.139 3.66 9.393 7.508 13.005l9.852 9.246c3.297 3.097 4.11 7.709 2.069 11.747zm-76.034-48.706c-29.768 0-53.986 24.218-53.986 53.986 0 29.769 24.218 53.987 53.986 53.987s53.986-24.219 53.986-53.987c0-29.767-24.218-53.986-53.986-53.986zm0 91.974c-20.946 0-37.986-17.041-37.986-37.987s17.041-37.986 37.986-37.986 37.986 17.041 37.986 37.986c0 20.946-17.04 37.987-37.986 37.987z" fill="#CA7D41" data-original="#000000" opacity="1" class=""></path></g></svg>