<svg xmlns="http://www.w3.org/2000/svg" version="1.1" xmlns:xlink="http://www.w3.org/1999/xlink" xmlns:svgjs="http://svgjs.com/svgjs" width="512" height="512" x="0" y="0" viewBox="0 0 480 480.101" style="enable-background:new 0 0 512 512" xml:space="preserve" class=""><g><path d="M430.691 112.535c17.61-16.816 22.336-43.082 11.696-64.98-10.64-21.899-34.211-34.414-58.313-30.957-24.101 3.453-43.21 22.086-47.27 46.09-4.062 24.007 7.856 47.886 29.477 59.078a39.758 39.758 0 0 0-14.23 30.336v64h-24v-64c-.043-28.336-21.227-52.184-49.36-55.567 16.57-15.797 21.856-40.09 13.348-61.344C283.531 13.934 262.945 0 240.051 0s-43.48 13.934-51.989 35.191c-8.507 21.254-3.222 45.547 13.348 61.344-28.133 3.383-49.316 27.23-49.36 55.567v64h-24v-64a39.758 39.758 0 0 0-14.23-30.336c21.621-11.192 33.54-35.07 29.477-59.079-4.063-24.003-23.168-42.636-47.27-46.09-24.101-3.456-47.672 9.06-58.312 30.958-10.64 21.898-5.914 48.164 11.695 64.98C21.277 115.918.094 139.765.05 168.102v120a56 56 0 0 0 32 50.52v141.48h16V343.46c2.626.375 56 .64 56 .64a8 8 0 0 1 8 8v128h64v-152h56v136h-32v16h80v-16h-32v-136h56v152h64v-128a8 8 0 0 1 8-8s53.376-.265 56-.64V480.1h16v-141.48a56 56 0 0 0 32-50.52v-120c-.042-28.335-21.226-52.183-49.359-55.566zm-78.64-40.433c0-22.09 17.91-40 40-40s40 17.91 40 40-17.91 40-40 40c-22.082-.028-39.973-17.918-40-40zm-94.946 40-17.054 25.601-17.055-25.601zm-57.054-56c0-22.09 17.91-40 40-40s40 17.91 40 40-17.91 40-40 40c-22.082-.028-39.973-17.918-40-40zm-32 96c.066-20.48 15.62-37.586 36-39.594l36 53.992 36-54.016c20.39 2.008 35.945 19.13 36 39.618v64h-32v48h-80v-48h-32zm-120-80c0-22.09 17.91-40 40-40s40 17.91 40 40-17.91 40-40 40c-22.082-.028-39.973-17.918-40-40zm112 392h-32v-112c0-13.254-10.746-24-24-24h-48c-22.082-.028-39.973-17.918-40-40v-120c.027-22.082 17.918-39.973 40-40h32c13.254 0 24 10.746 24 24v80h72v32h-96a8 8 0 0 1-8-8v-96h-16v96c0 13.253 10.746 24 24 24h32c22.082.027 39.972 17.918 40 40zm15.36-152a55.885 55.885 0 0 0-16.247-32h161.773a55.885 55.885 0 0 0-16.246 32zm288.64-24c-.028 22.082-17.918 39.972-40 40h-48c-13.254 0-24 10.746-24 24v112h-32v-144c.027-22.082 17.918-39.973 40-40h32c13.254 0 24-10.747 24-24v-96h-16v96a8 8 0 0 1-8 8h-96v-32h72v-80c0-13.254 10.746-24 24-24h32c22.082.027 39.972 17.918 40 40zm0 0" fill="#CA7D41" data-original="#000000" opacity="1" class=""></path></g></svg>