<?xml version="1.0" encoding="UTF-8"?>
<svg id="Layer_1" data-name="Layer 1" xmlns="http://www.w3.org/2000/svg" viewBox="0 0 217.39 242.94">
  <defs>
    <style>
      .cls-1 {
        fill: #ca7d41;
      }

      .cls-2 {
        fill: #252120;
      }
    </style>
  </defs>
  <path class="cls-2" d="M29.19,233.04c7-8.74,23.54-29.39,30.54-38.13-10.27-5.9-13.52-9.7-21.62-16.94l-8.71,10.83c-3.76,4.68-7.53,9.36-11.28,14.04-5.67,7.07-11.35,14.15-16.99,21.25-1.66,2.09-1.49,3.68,.56,5.35,5.04,4.1,10.1,8.18,15.18,12.22,2.36,1.87,3.94,1.71,5.87-.6,2.19-2.63,4.3-5.33,6.45-8.01Z"/>
  <path class="cls-2" d="M77.98,156.34c5.62-7,9.84-12.26,11.12-13.87,7.47,4.77,15.32,7.63,23.93,7.97,8.66,.34,16.9-1.35,24.58-5.46,7.6-4.08,13.6-9.85,18.12-17.19,11.97-19.44,7.58-45.55-10.08-60.36-17.58-14.74-44.53-14.99-62.45,1.9-8.02,7.56-12.93,16.89-14.3,27.83-1.88,15.06,2.55,28.2,13.34,39.71-1.24,1.55-5.78,7.21-11.23,14,2.2,1.99,4.06,3.76,6.96,5.49Zm-.16-48.86c-2.15-20.75,13.08-39.57,33.78-41.6,21.39-2.1,39.46,13.52,41.43,33.65,2.43,21.15-13.7,39.85-34.32,41.66-20.11,1.76-38.77-13.34-40.88-33.7Z"/>
  <g>
    <g>
      <path class="cls-1" d="M116.12,205.24h.88c1.13-.04,2.3-.07,3.43-.14,1.1-.05,2.2-.14,3.27-.23l1.11-.11c.66-.07,1.34-.14,2.02-.23-.22-2.09-.88-7.43-2.06-16.28-.55-4.17-1.11-8.32-1.54-11.46-.3-2.2-.49-3.5-.6-4.25-3.94,.44-7.9,.55-11.81,.33-3.94-.23-7.88-.8-11.73-1.69l-5.56,22.31-1.15-.29c-2.37-.59-4.47-1.2-6.6-1.91l-1.12-.37,7.2-21.89c-2.53-.88-5.02-1.91-7.4-3.05-3.71-1.79-7.3-3.92-10.67-6.35-3.39-2.44-6.55-5.17-9.39-8.11-2.88-2.97-5.5-6.2-7.82-9.62-2.29-3.4-4.3-7.05-5.98-10.85l-.23-.54c-.13-.3-.26-.59-.38-.89l-.57-1.42-.55-1.46c-.12-.31-.22-.62-.33-.93l-.18-.53c-.66-1.96-1.25-3.97-1.74-5.98-.48-1.92-.88-3.97-1.21-6.1-.31-2.04-.54-4.12-.67-6.17-.53-8.29,.4-16.48,2.75-24.36l-30.77-9.71c-.11,.34-.27,.81-.47,1.45-.2,.66-.42,1.44-.65,2.26-.21,.79-.42,1.64-.63,2.49l-.02,.08c-.19,.86-.39,1.74-.56,2.58-.16,.82-.3,1.61-.42,2.31-.09,.6-.16,1.07-.21,1.43l22.71,3.57-.18,1.16c-.32,2.07-.52,4.01-.71,5.83l-.12,1.15-12.64-1.04c-1.28-.1-2.57-.21-3.85-.32-2.1-.18-4.27-.36-6.41-.51-.03,.31-.06,.69-.1,1.17-.04,.65-.08,1.43-.13,2.33-.04,.88-.06,1.88-.08,2.95-.02,2.61,.04,4.98,.19,7.24,.18,2.73,.46,5.48,.85,8.18,.38,2.6,.89,5.3,1.51,8.02l.45,1.87c.1,.42,.21,.83,.32,1.23l.14,.54c.23,.91,.49,1.76,.74,2.59l.2,.66c.24,.78,.48,1.51,.7,2.19l.18,.55c.28,.79,.54,1.51,.75,2.1,.13,.36,.25,.67,.35,.92,2.09-.72,6.62-2.5,8.52-3.32-1.41-3.87-2.59-7.94-3.51-12.11-.45-2.07-.85-4.28-1.22-6.74-.33-2.34-.57-4.64-.73-6.85l-.08-1.18,13.39-.92,.33,.79c.07,.15,.17,.34,.19,.61,.7,9.56,3.06,18.79,7,27.44,.07,.15,.13,.32,.19,.49l.17,.49-.13,.43s0,0-.03,.09l-.2,.6-4.35,2.03c.8,1.65,1.58,3.15,2.38,4.56,.91,1.62,1.79,3.08,2.67,4.44l4.71-3.13,1.37,2.05,.75,1.08,1.53,2.06,.8,1.04,1.62,1.98,.85,.99c2.37,2.69,4.81,5.15,7.24,7.29,5.1,4.52,10.82,8.4,17.02,11.53l1.05,.53-10.34,20.52c10.78,5.28,22.28,8.6,34.21,9.86l2.16-22.9,1.19,.13c.73,.08,1.47,.13,2.19,.17l1.31,.08c.76,.04,1.54,.07,2.31,.08h1.19s-.46,23.06-.46,23.06c.72,0,1.45,0,2.16,0Z"/>
      <path class="cls-1" d="M56.54,175.53l-5.83,7.1c.3,.25,.7,.59,1.22,1.01,.54,.43,1.18,.92,1.86,1.44l.08,.05c.66,.48,1.35,.99,2.05,1.48l.42,.29c.59,.4,1.17,.8,1.73,1.16l.09,.06c.67,.43,1.29,.83,1.85,1.16,.5,.3,.88,.52,1.16,.68l4.71-7.85c-1.61-1-3.22-2.07-4.79-3.17-1.52-1.08-3.05-2.23-4.56-3.41Z"/>
      <path class="cls-1" d="M42.43,161.61c-.22-.26-.44-.52-.64-.75-.57,.44-1.14,.89-1.72,1.33-1.79,1.39-3.64,2.82-5.47,4.26,2.67,3.36,5.5,6.5,8.61,9.53l6.31-6.62c-.06-.07-.13-.13-.2-.21-.21-.21-.44-.45-.69-.71-.17-.18-.36-.38-.55-.58-.29-.3-.6-.62-.91-.96l-1.62-1.76c-1.16-1.27-2.29-2.59-3.12-3.55Z"/>
      <path class="cls-1" d="M23.48,149.25l1.08,2.12c.14,.27,.29,.55,.45,.83l.16,.29c1.3,2.38,2.75,4.68,3.59,5.91,1.79-1.09,5.97-3.89,7.66-5.13-.11-.19-.24-.4-.38-.63-.76-1.25-1.79-2.96-2.76-4.69l-.21-.37c-.12-.22-.24-.43-.36-.64l-1.46-2.72c-.18-.34-.34-.65-.49-.91l-8.26,3.85c.14,.32,.32,.71,.53,1.15l.45,.95Z"/>
      <path class="cls-1" d="M63.72,94.59c-3.85-.61-7.58-1.2-11.3-1.78-.03-.12,.04-.71,.15-1.55,.07-.42,.16-.9,.24-1.41,.1-.51,.22-1.04,.33-1.58,.13-.54,.26-1.07,.39-1.58,.15-.5,.28-.98,.4-1.4,.27-.83,.48-1.43,.58-1.57,3.6,1.13,7.22,2.27,10.93,3.44-.36,1.23-.69,2.45-.99,3.68-.29,1.24-.54,2.48-.75,3.76Z"/>
    </g>
    <g>
      <path class="cls-1" d="M75.23,44.61c3.42-2.33,7.06-4.37,10.81-6.06,3.78-1.69,7.72-3.05,11.72-4.06,4.12-1.02,8.25-1.68,12.26-1.96,4.14-.29,8.3-.21,12.39,.22,8.32,.91,16.3,3.24,23.71,6.94,3.72,1.85,7.28,4.03,10.59,6.47,3.28,2.43,6.36,5.15,9.16,8.1l23.75-21.83c-.26-.3-.61-.68-1.02-1.12l-.25-.26c-.42-.44-.89-.93-1.39-1.43l-.94-.92c-.31-.3-.63-.61-.95-.91-1.95-1.83-3.85-3.39-4.88-4.19l-14.44,17.91-.92-.75c-1.56-1.26-3.11-2.38-4.68-3.51l-.95-.68,7.22-10.43c.73-1.06,1.47-2.12,2.2-3.17,1.21-1.74,2.45-3.52,3.66-5.3-.26-.19-.58-.4-.94-.65-1.47-.99-2.96-1.94-4.45-2.82-1.91-1.15-4.11-2.35-6.36-3.47-2.48-1.24-5-2.37-7.49-3.36-2.51-1-5.11-1.92-7.73-2.73-2.2-.67-4.53-1.3-6.92-1.86-1.02-.23-1.97-.43-2.82-.6-.84-.16-1.59-.3-2.22-.41-.39-.06-.72-.11-.98-.15-.42,2.17-1.14,6.99-1.38,9.04,8.67,1.52,17.08,4.27,25.02,8.17l1.06,.52-5.92,12.06-.86-.13c-.16-.01-.38-.03-.62-.15-4.25-2.07-8.72-3.77-13.27-5.05-4.5-1.27-9.2-2.15-13.97-2.61-.17-.02-.35-.05-.52-.09l-.51-.1-.31-.33s0,0-.06-.07l-.41-.47,.41-4.78c-1.8-.13-3.49-.2-5.15-.22-1.84-.01-3.54,.02-5.17,.1l.36,5.64-1.18,.08c-3.34,.21-6.78,.66-10.23,1.32-3.37,.67-6.72,1.55-9.95,2.61l-2.42,.85-1.22,.46-1.19,.48c-.58,.23-1.14,.47-1.7,.71l-.68,.29c-.25,.11-.5,.23-.76,.34l-.75,.35c-.27,.12-.53,.25-.8,.38-3.2,1.56-6.22,3.27-8.98,5.1l-.99,.65-12.62-19.21c-9.95,6.71-18.56,15.01-25.61,24.71l18.74,13.31-.68,.96c-1.2,1.7-2.22,3.26-3.21,4.89l-.61,1.01-19.7-11.93c-1.11,1.87-2.15,3.77-3.12,5.66-.96,1.89-1.87,3.84-2.71,5.81,1.93,.86,6.87,2.96,15.11,6.39,3.89,1.62,7.76,3.21,10.69,4.42,2.03,.83,3.25,1.33,3.98,1.61,3.2-7.28,7.56-13.9,12.97-19.72l-16.57-15.94,.81-.85c1.53-1.6,3.1-3.11,4.94-4.77l.88-.79,15.39,17.15c1.98-1.72,4.11-3.36,6.33-4.88Z"/>
      <path class="cls-1" d="M71.69,9.56c-2.34,1.09-4.45,2.23-5.56,2.88l4.44,8c.17-.09,.34-.18,.52-.27l.48-.25c.35-.18,.7-.36,1.05-.54l.39-.19c.89-.44,1.81-.89,2.74-1.31,.77-.37,1.58-.71,2.36-1.05l1.54-.65c.44-.18,.88-.36,1.33-.54l-3.22-8.6c-1.26,.45-3.6,1.36-6.06,2.52Z"/>
      <path class="cls-1" d="M99.77,1.21c-.07,.01-.14,.02-.21,.03l-.88,.14c-.51,.08-1.01,.16-1.51,.25l-4.04,.79c-.2,.04-.4,.08-.6,.13l-1.49,.35c-.42,.1-.84,.2-1.25,.3l-1.84,.48c-.23,.06-.45,.12-.67,.18l2.56,8.78c.27-.07,.57-.14,.87-.21,1.27-.31,3-.74,4.74-1.11,1.66-.36,3.35-.68,4.59-.91,.34-.07,.69-.13,1-.19-.1-.72-.2-1.45-.3-2.18-.3-2.24-.62-4.55-.96-6.85Z"/>
      <path class="cls-1" d="M121.25,.25c-.88-.07-2.68-.2-4.69-.24-.7-.02-1.4-.02-2.08-.02h-.5c-.69,0-1.33,.03-1.96,.05l-.46,.02c-.33,.01-.65,.03-.95,.04l-.86,.06s-.07,0-.11,0c.05,2.1,.39,7.12,.62,9.2,0,0,.02,0,.02,0l2.32-.05c.49-.01,1-.02,1.53-.02h.68c.25,0,.51,0,.77,0,.29,0,.58,0,.87,0,1.43,0,2.84,.06,3.98,.09h.25c.42,.03,.77,.04,1.04,.05l.78-9.08c-.31-.03-.72-.07-1.26-.12Z"/>
      <path class="cls-1" d="M147.46,62.38c2.45-3.04,4.82-5.97,7.19-8.9,.24,.06,1.96,1.4,3.58,2.9l.3,.28c.1,.1,.2,.19,.29,.29,.2,.19,.39,.38,.58,.56,.38,.37,.71,.73,1.01,1.05,.3,.31,.54,.61,.73,.83,.19,.22,.31,.38,.35,.46-2.78,2.56-5.57,5.12-8.43,7.76-1.76-1.85-3.59-3.6-5.6-5.23Z"/>
    </g>
    <path class="cls-1" d="M157.01,189.05c.9,1.91,1.82,3.88,2.75,5.81,.3-.14,.65-.31,1.05-.5,.57-.27,1.21-.6,1.97-.99l.11-.06c.7-.35,1.46-.78,2.27-1.22l.33-.18c2.3-1.3,4.32-2.54,6.19-3.78,2.31-1.53,4.56-3.16,6.68-4.83,2.13-1.68,4.22-3.48,6.22-5.34,1.62-1.5,3.22-3.11,5.06-5.07,1.84-2,3.25-3.68,4-4.61-1.67-1.45-5.48-4.48-7.14-5.71-5.65,6.77-12.23,12.69-19.56,17.61l-.98,.66-7.49-11.15,.54-.68c.09-.13,.22-.31,.44-.45,7.91-5.37,14.72-12.03,20.23-19.8,.1-.13,.19-.25,.3-.36l.37-.43,.42-.1s.06-.02,.13-.03l.61-.13,3.94,2.75,.24-.35,.86-1.32c.21-.32,.41-.64,.6-.95l.24-.38c.28-.46,.55-.89,.81-1.33,.85-1.42,1.67-2.9,2.51-4.53l-5.06-2.52,.53-1.06c3.05-6.11,5.31-12.66,6.7-19.44,.7-3.47,1.17-6.9,1.4-10.19,.15-1.86,.19-3.74,.21-5.16v-1.52c0-.13,0-.26-.01-.4l-.06-1.96-.13-2.46,22.94-1.35c-.42-5.92-1.35-11.83-2.78-17.6-1.44-5.79-3.38-11.46-5.78-16.88l-20.91,9.55-.49-1.08c-.73-1.62-1.54-3.23-2.62-5.22l-.56-1.03,20.18-11.09c-1-1.78-2.11-3.61-3.36-5.55-1.12-1.74-2.33-3.46-3.69-5.26-1.7,1.24-5.99,4.48-13.07,9.91-3.34,2.56-6.65,5.12-9.16,7.06-1.76,1.36-2.78,2.17-3.38,2.64,4.72,6.42,8.27,13.49,10.57,21.07l22.1-6.34,.92,3.3c.1,.39,.2,.77,.3,1.15l.17,.7c.2,.85,.41,1.74,.59,2.64l.23,1.15-22.54,4.73c.5,2.62,.86,5.28,1.07,7.94,.65,8.25-.18,16.51-2.48,24.57-1.14,3.97-2.64,7.86-4.45,11.58-.91,1.86-1.91,3.69-2.97,5.46-1.07,1.77-2.23,3.51-3.44,5.17-2.44,3.34-5.18,6.48-8.16,9.34-2.98,2.85-6.23,5.45-9.68,7.75-3.4,2.27-7.06,4.26-10.89,5.92-1.89,.82-3.84,1.56-5.79,2.22-1.9,.62-3.85,1.18-5.81,1.65l7,31.49c.37-.07,.85-.18,1.48-.31,.67-.16,1.45-.36,2.27-.57,.73-.19,1.5-.42,2.27-.64l.27-.08c.81-.25,1.63-.52,2.41-.77l.1-.03c.79-.27,1.54-.55,2.2-.79,.54-.21,.99-.38,1.34-.53l-8.25-21.48,1.12-.42c.3-.11,.6-.23,.9-.36l1.81-.75,3.73-1.66,5.41,11.47c.55,1.16,1.1,2.33,1.65,3.5Z"/>
    <path class="cls-1" d="M217.39,105.49l-9.15-.14c-.05,1.76-.17,3.61-.36,5.74-.15,1.76-.37,3.58-.68,5.66l9.07,1.51c.25-1.35,.62-3.9,.84-6.51,.14-1.65,.24-3.44,.26-4.9,.02-.53,.02-.99,.01-1.35Z"/>
    <path class="cls-1" d="M205.12,126.76c-.37,1.26-.87,2.99-1.43,4.7-.52,1.63-1.1,3.27-1.52,4.46-.11,.32-.23,.65-.33,.94,.68,.28,1.36,.56,2.04,.84,2.09,.86,4.24,1.75,6.4,2.61,.29-.73,.56-1.46,.83-2.18l.2-.55c.39-1.09,.79-2.22,1.14-3.33,.2-.61,.39-1.2,.57-1.8l.16-.53c.13-.43,.26-.86,.38-1.3l.5-1.84c.06-.23,.12-.45,.18-.68l-8.88-2.17c-.08,.26-.16,.55-.25,.84Z"/>
    <path class="cls-1" d="M200.4,159.28c.36-.52,.76-1.11,1.18-1.75l.19-.29c.37-.59,.76-1.2,1.14-1.83l.27-.45c.35-.59,.7-1.18,1.02-1.75l.17-.3c.34-.62,.67-1.22,.96-1.77,.33-.64,.62-1.21,.85-1.68,.01-.03,.03-.06,.04-.09-1.84-1.01-6.36-3.23-8.27-4.07-.23,.41-.51,.93-.82,1.5l-1.04,1.86c-.23,.4-.46,.8-.7,1.2l-.46,.79-2.46,4.01c-.1,.17-.21,.33-.31,.49l7.47,5.21c.2-.27,.44-.61,.73-1.02l.04-.06Z"/>
    <path class="cls-1" d="M133.53,150.97c1.4,3.64,2.75,7.17,4.1,10.68-.09,.08-.63,.33-1.42,.64-.4,.15-.85,.32-1.34,.5-.49,.16-1.02,.34-1.54,.5-.53,.15-1.06,.31-1.57,.45-.51,.13-.99,.25-1.42,.35-.86,.18-1.49,.3-1.66,.29-.82-3.68-1.65-7.38-2.5-11.18,1.25-.31,2.49-.63,3.71-1,1.22-.38,2.44-.77,3.64-1.24Z"/>
  </g>
</svg>