<svg width="206" height="207" viewBox="0 0 206 207" fill="none" xmlns="http://www.w3.org/2000/svg">
<path d="M98.1499 9.61009L97.6299 1.76009C97.6229 1.66057 97.6369 1.56069 97.6709 1.46679C97.7039 1.37289 97.7569 1.28702 97.8259 1.21463C97.8939 1.14223 97.9769 1.08488 98.0689 1.04623C98.1609 1.00758 98.2599 0.988459 98.3599 0.990086L109.69 1.14009C109.789 1.14112 109.887 1.16254 109.977 1.20303C110.067 1.24351 110.148 1.30219 110.215 1.37538C110.282 1.44858 110.332 1.53473 110.364 1.62845C110.396 1.72217 110.408 1.82145 110.4 1.92009L109.8 9.63009C109.785 9.81046 109.702 9.97853 109.569 10.1008C109.436 10.2231 109.261 10.2907 109.08 10.2901L98.8599 10.2801C98.6789 10.278 98.5059 10.2079 98.3739 10.0838C98.2429 9.95964 98.1629 9.79053 98.1499 9.61009ZM109.145 2.79699C109.146 2.69981 109.127 2.60348 109.09 2.5135C109.053 2.42352 108.999 2.34166 108.931 2.27258C108.863 2.2035 108.781 2.14857 108.692 2.1109C108.602 2.07324 108.506 2.0536 108.409 2.05309L99.6289 2.00719C99.5319 2.00667 99.4359 2.02531 99.3459 2.06202C99.2559 2.09873 99.1739 2.15281 99.1049 2.22117C99.0359 2.28952 98.9809 2.37081 98.9429 2.4604C98.9049 2.54998 98.8859 2.64611 98.8849 2.74329L98.8549 8.50319C98.8549 8.60036 98.8729 8.69669 98.9099 8.78667C98.9469 8.87665 99.0009 8.95851 99.0689 9.02759C99.1369 9.09667 99.2189 9.15161 99.3079 9.18927C99.3979 9.22693 99.4939 9.24657 99.5909 9.24709L108.371 9.29299C108.468 9.2935 108.565 9.27487 108.655 9.23815C108.745 9.20144 108.826 9.14736 108.895 9.07901C108.965 9.01065 109.019 8.92936 109.057 8.83978C109.095 8.75019 109.114 8.65406 109.115 8.55689L109.145 2.79699Z" fill="#FBE6C8" fill-opacity="0.988"/>
<path d="M75.7299 4.65005L87.2599 2.18005C87.3257 2.16562 87.3939 2.16494 87.46 2.17807C87.5262 2.19119 87.5889 2.21783 87.6443 2.25632C87.6997 2.29481 87.7465 2.34431 87.7819 2.40174C87.8173 2.45916 87.8404 2.52327 87.8499 2.59005L88.9599 10.72C88.9749 10.8426 88.9429 10.9664 88.8709 11.0665C88.7989 11.1666 88.6909 11.2358 88.5699 11.26L78.2399 13.45C78.1195 13.4752 77.9941 13.4542 77.8885 13.3912C77.783 13.3283 77.7049 13.2279 77.6699 13.11L75.3599 5.27005C75.3404 5.205 75.3347 5.13663 75.3431 5.06927C75.3515 5.00191 75.3738 4.93702 75.4086 4.87873C75.4434 4.82044 75.4899 4.77001 75.5452 4.73065C75.6005 4.69128 75.6634 4.66383 75.7299 4.65005ZM86.8759 4.00195C86.835 3.80999 86.7196 3.6421 86.555 3.53523C86.3904 3.42835 86.1901 3.39124 85.9982 3.43205L77.4688 5.24495C77.3737 5.26515 77.2836 5.30388 77.2035 5.35892C77.1234 5.41396 77.0549 5.48424 77.002 5.56574C76.949 5.64724 76.9127 5.73837 76.895 5.83393C76.8773 5.92948 76.8786 6.02759 76.8988 6.12265L78.0839 11.6981C78.1247 11.8901 78.2401 12.058 78.4047 12.1649C78.5693 12.2717 78.7696 12.3089 78.9616 12.268L87.491 10.4551C87.586 10.4349 87.6762 10.3962 87.7563 10.3412C87.8364 10.2861 87.9048 10.2159 87.9578 10.1344C88.0109 10.0528 88.0469 9.96172 88.0649 9.86617C88.0829 9.77061 88.0809 9.6725 88.0609 9.57745L86.8759 4.00195Z" fill="#FBE6C8" fill-opacity="0.988"/>
<path d="M35.2 40.06L50.97 55.26C51.2567 55.5333 51.2667 55.82 51 56.12C45.98 61.6866 41.9133 67.88 38.8 74.7C38.7088 74.8987 38.5436 75.0543 38.3388 75.1344C38.1339 75.2145 37.9051 75.2129 37.7 75.13L9.18995 63.23C8.77665 63.0566 8.67325 62.77 8.87995 62.37L14.12 51.97C14.3 51.6166 14.5633 51.5433 14.91 51.75L33.62 63.08C33.9867 63.3 34.2867 63.23 34.52 62.87L38.36 56.99C38.5667 56.67 38.5167 56.4033 38.21 56.19L20.43 43.61C20.3728 43.5697 20.3243 43.5183 20.2873 43.4587C20.2502 43.3992 20.2254 43.3326 20.2143 43.2629C20.2031 43.1932 20.2058 43.1217 20.2223 43.0525C20.2387 42.9834 20.2685 42.9179 20.31 42.86C27.2633 33.4866 35.54 25.49 45.14 18.87C45.1984 18.8298 45.2641 18.8015 45.3332 18.7867C45.4024 18.772 45.4736 18.7711 45.5426 18.7842C45.6116 18.7972 45.677 18.8239 45.7349 18.8627C45.7929 18.9015 45.8422 18.9516 45.88 19.01L57.91 37.31C57.9548 37.3766 58.0121 37.4338 58.0786 37.4784C58.1452 37.523 58.2196 37.5541 58.2976 37.5699C58.3756 37.5857 58.4558 37.5859 58.5334 37.5705C58.611 37.555 58.6846 37.5243 58.75 37.48C70.7633 29.5533 83.99 25.1366 98.43 24.23C98.877 24.2033 99.083 23.9633 99.05 23.51L98.68 19.18C98.647 18.7066 98.863 18.4733 99.33 18.48L108.41 18.54C108.81 18.5466 108.997 18.75 108.97 19.15L108.7 23.54C108.667 24.08 108.92 24.3733 109.46 24.42C121.06 25.49 128.7 28.84 138.46 32.34C138.913 32.5 139.243 32.3633 139.45 31.93L144.75 21.02C144.834 20.85 144.847 20.654 144.787 20.4743C144.727 20.2946 144.599 20.1457 144.43 20.06C136.537 16.12 128.247 13.3766 119.56 11.83C119.402 11.8006 119.262 11.7113 119.169 11.5808C119.076 11.4503 119.037 11.2887 119.06 11.13L120.2 3.32997C120.215 3.23136 120.249 3.13668 120.3 3.05162C120.352 2.96655 120.42 2.89286 120.5 2.83495C120.581 2.77705 120.672 2.73613 120.768 2.71465C120.864 2.69317 120.963 2.69158 121.06 2.70997C135.133 5.22997 148.08 10.4866 159.9 18.48C159.945 18.5106 159.984 18.5498 160.015 18.5953C160.045 18.6408 160.066 18.6916 160.076 18.7447C160.086 18.7978 160.086 18.8522 160.074 18.9047C160.063 18.9571 160.041 19.0065 160.01 19.05L147.54 37.11C147.333 37.41 147.373 37.67 147.66 37.89L153.32 42.17C153.432 42.256 153.573 42.2948 153.713 42.2779C153.854 42.2611 153.982 42.19 154.07 42.08L167.42 25.59C168.027 24.8366 168.687 24.79 169.4 25.45L176.99 32.49C177.093 32.584 177.175 32.6984 177.231 32.8261C177.287 32.9537 177.316 33.0918 177.316 33.2318C177.316 33.3717 177.287 33.5104 177.231 33.6391C177.175 33.7679 177.093 33.8839 176.99 33.98L154.19 54.95C154.097 55.0372 153.973 55.0839 153.844 55.0802C153.715 55.0764 153.592 55.0225 153.5 54.93C127.06 28.06 86.36 26.23 57.33 50.1C57.2153 50.1969 57.0668 50.2449 56.9157 50.2337C56.7646 50.2225 56.6228 50.153 56.52 50.04L41.87 33.72C41.61 33.4266 41.3333 33.4166 41.04 33.69L35.2 39.21C34.9067 39.49 34.9067 39.7733 35.2 40.06ZM139.76 33.29C139.702 33.4058 139.603 33.4962 139.482 33.5441C139.36 33.592 139.224 33.5941 139.1 33.55C128.96 29.81 121.67 26.59 109.28 25.4C108.867 25.36 108.56 25.16 108.36 24.8C107.58 23.3866 107.447 21.8733 107.96 20.26C107.988 20.1744 107.996 20.0832 107.983 19.994C107.969 19.9048 107.934 19.8201 107.882 19.7469C107.829 19.6737 107.76 19.614 107.679 19.5728C107.599 19.5316 107.51 19.5101 107.42 19.51L101.14 19.5C100.227 19.4933 99.797 19.9466 99.85 20.86L100.05 24.42C100.077 24.9 99.85 25.1533 99.37 25.18C84.6767 25.9533 71.2367 30.37 59.05 38.43C58.31 38.9166 57.6967 38.79 57.21 38.05L45.56 20.36C45.3733 20.08 45.1433 20.0366 44.87 20.23C36.2367 26.43 28.64 33.7133 22.08 42.08C21.6 42.7 21.6767 43.2366 22.31 43.69L39.66 56.05C39.9467 56.2566 39.99 56.5066 39.79 56.8L34.78 64.32C34.5733 64.62 34.3133 64.6766 34 64.49L15.28 53.13C14.9467 52.93 14.69 53.0033 14.51 53.35L10.17 61.87C10.1312 61.9451 10.1082 62.0274 10.1024 62.1116C10.0966 62.1957 10.1082 62.28 10.1364 62.359C10.1646 62.438 10.2088 62.51 10.2663 62.5704C10.3237 62.6308 10.3931 62.6783 10.47 62.71L37.15 73.84C37.69 74.0666 38.08 73.9166 38.32 73.39C41.2533 67.09 45.0467 61.3633 49.7 56.21C49.9733 55.91 49.9633 55.62 49.67 55.34L33.82 40.08C33.52 39.7866 33.52 39.4966 33.82 39.21L41.15 32.24C41.2005 32.1913 41.2604 32.1534 41.3259 32.1285C41.3914 32.1036 41.4613 32.0922 41.5314 32.095C41.6015 32.0978 41.6702 32.1148 41.7336 32.1448C41.7969 32.1749 41.8535 32.2175 41.9 32.27L56.46 48.53C56.5967 48.6845 56.7886 48.7798 56.9968 48.7965C57.2049 48.8132 57.4135 48.7501 57.58 48.62C86.65 25.21 126.9 27.44 153.5 53.49C153.76 53.7433 154.02 53.75 154.28 53.51L175.93 33.67C176.243 33.3833 176.243 33.0966 175.93 32.81L168.71 26.19C168.67 26.1539 168.623 26.1264 168.572 26.1093C168.522 26.0922 168.468 26.0858 168.414 26.0905C168.361 26.0952 168.309 26.1109 168.261 26.1366C168.214 26.1623 168.173 26.1975 168.14 26.24L154.47 43.23C154.338 43.3944 154.148 43.501 153.938 43.5272C153.729 43.5533 153.518 43.4969 153.35 43.37L146.21 38.1C145.943 37.9 145.903 37.6666 146.09 37.4L158.63 19.35C158.665 19.2986 158.69 19.2409 158.702 19.1804C158.715 19.1198 158.716 19.0575 158.705 18.997C158.694 18.9366 158.671 18.8792 158.637 18.8282C158.604 18.7772 158.561 18.7336 158.51 18.7C147.39 11.3133 135.263 6.39663 122.13 3.94997C121.49 3.82997 121.12 4.0933 121.02 4.73997L120.16 10.19C120.087 10.6233 120.27 10.8833 120.71 10.97C129.53 12.7566 137.967 15.6533 146.02 19.66C146.293 19.8 146.36 20.0033 146.22 20.27L139.76 33.29Z" fill="#FBE6C8" fill-opacity="0.988"/>
<path d="M54.67 13.0099L65.04 8.13995C65.1203 8.10273 65.2074 8.08256 65.2958 8.08071C65.3843 8.07886 65.4722 8.09537 65.5539 8.1292C65.6357 8.16303 65.7095 8.21344 65.7708 8.27725C65.8321 8.34107 65.8795 8.4169 65.91 8.49995L68.7 15.9599C68.7558 16.1092 68.754 16.2739 68.6948 16.4219C68.6356 16.5698 68.5234 16.6904 68.38 16.7599L59.07 21.1399C58.9244 21.2091 58.7579 21.2208 58.6041 21.1726C58.4502 21.1244 58.3202 21.0199 58.24 20.8799L54.38 13.8999C54.3375 13.8231 54.3113 13.7384 54.3029 13.651C54.2946 13.5636 54.3043 13.4754 54.3315 13.3919C54.3587 13.3084 54.4028 13.2314 54.4611 13.1657C54.5193 13.1 54.5904 13.047 54.67 13.0099ZM65.2371 10.0054C65.1966 9.91568 65.1388 9.83478 65.067 9.76736C64.9952 9.69994 64.9108 9.64732 64.8186 9.61251C64.7265 9.57769 64.6284 9.56137 64.53 9.56447C64.4315 9.56756 64.3347 9.59002 64.2449 9.63055L56.3157 13.2107C56.2259 13.2513 56.145 13.3091 56.0776 13.3809C56.0102 13.4527 55.9576 13.5371 55.9228 13.6292C55.888 13.7213 55.8716 13.8194 55.8747 13.9179C55.8778 14.0163 55.9003 14.1132 55.9408 14.2029L58.3029 19.4344C58.3434 19.5242 58.4013 19.6051 58.4731 19.6725C58.5449 19.74 58.6292 19.7926 58.7214 19.8274C58.8135 19.8622 58.9116 19.8785 59.01 19.8754C59.1085 19.8723 59.2053 19.8499 59.2951 19.8094L67.2243 16.2291C67.3141 16.1886 67.395 16.1308 67.4624 16.059C67.5298 15.9872 67.5824 15.9028 67.6172 15.8107C67.6521 15.7186 67.6684 15.6205 67.6653 15.522C67.6622 15.4236 67.6397 15.3267 67.5992 15.2369L65.2371 10.0054Z" fill="#FBE6C8" fill-opacity="0.988"/>
<path d="M175.44 70.86C175.536 71.0559 175.706 71.2062 175.913 71.2789C176.121 71.3517 176.349 71.3414 176.55 71.25L196.07 62.33C196.457 62.15 196.733 62.2533 196.9 62.64C201.473 73.18 204.21 84.1967 205.11 95.69C205.12 95.8085 205.105 95.9278 205.068 96.0407C205.031 96.1536 204.971 96.2578 204.893 96.3473C204.814 96.4368 204.719 96.5097 204.612 96.5617C204.505 96.6137 204.389 96.6437 204.27 96.65L183.28 97.79C183.147 97.7976 183.017 97.8314 182.898 97.8894C182.778 97.9473 182.671 98.0283 182.583 98.1278C182.495 98.2272 182.427 98.343 182.383 98.4687C182.34 98.5943 182.322 98.7273 182.33 98.86C183.097 113.067 180.333 126.517 174.04 139.21C173.983 139.325 173.949 139.449 173.94 139.578C173.932 139.706 173.949 139.834 173.991 139.956C174.033 140.078 174.098 140.19 174.184 140.287C174.27 140.384 174.374 140.463 174.49 140.52L178.2 142.29C178.6 142.483 178.687 142.77 178.46 143.15L173.84 150.94C173.62 151.313 173.333 151.377 172.98 151.13L169.9 149.03C169.598 148.823 169.226 148.742 168.866 148.806C168.505 148.87 168.183 149.072 167.97 149.37C162.157 157.45 155.143 164.307 146.93 169.94C146.76 170.058 146.643 170.238 146.604 170.44C146.564 170.642 146.606 170.85 146.72 171.02L153.66 181.33C153.88 181.663 154.157 181.717 154.49 181.49C161.83 176.543 168.387 170.707 174.16 163.98C174.387 163.72 174.637 163.697 174.91 163.91L181.19 168.82C181.517 169.08 181.547 169.367 181.28 169.68C172.087 180.64 161.073 189.297 148.24 195.65C147.927 195.803 147.7 195.723 147.56 195.41L138.36 175.83C138.127 175.343 137.763 175.207 137.27 175.42L131.01 178.15C130.663 178.303 130.557 178.553 130.69 178.9L138.48 199.25C138.647 199.69 138.503 199.98 138.05 200.12L127.08 203.49C126.633 203.63 126.36 203.47 126.26 203.01L119.53 172.73C119.49 172.545 119.523 172.351 119.621 172.189C119.72 172.027 119.877 171.91 120.06 171.86C156.94 162.09 177.32 128.56 172.33 91.05C172.27 90.5567 172.483 90.2567 172.97 90.15L194 85.79C194.077 85.775 194.151 85.7442 194.216 85.6994C194.281 85.6546 194.336 85.5967 194.378 85.5294C194.42 85.462 194.448 85.3865 194.461 85.3075C194.473 85.2286 194.469 85.1477 194.45 85.07L192.47 77.32C192.363 76.9 192.1 76.75 191.68 76.87L170.91 82.86C170.41 83.0067 170.083 82.8333 169.93 82.34C167.737 75.2933 164.487 68.77 160.18 62.77C160.02 62.5499 159.953 62.2758 159.992 62.0054C160.031 61.7349 160.174 61.4892 160.39 61.32L184.41 42.95C184.528 42.8584 184.663 42.7925 184.808 42.7563C184.952 42.7202 185.103 42.7146 185.25 42.74C185.397 42.7655 185.537 42.8213 185.661 42.9039C185.785 42.9866 185.89 43.0942 185.97 43.22L191.97 52.54C192.02 52.6158 192.054 52.7012 192.069 52.7907C192.085 52.8802 192.082 52.9719 192.06 53.0602C192.038 53.1484 191.999 53.2312 191.944 53.3035C191.889 53.3757 191.819 53.4358 191.74 53.48L172.78 63.9C172.602 64.0001 172.469 64.1643 172.41 64.3582C172.35 64.5521 172.368 64.7606 172.46 64.94L175.44 70.86ZM176.52 173.43C177.38 172.5 178.87 171.31 179.83 169.86C180.043 169.54 180 169.257 179.7 169.01L175.17 165.35C174.817 165.07 174.49 165.1 174.19 165.44C168.283 172.193 161.58 178.023 154.08 182.93C153.807 183.11 153.58 183.063 153.4 182.79L145.9 171.63C145.267 170.677 145.413 169.87 146.34 169.21C154.5 163.43 161.47 156.607 167.25 148.74C169.06 146.27 171.08 148.92 172.76 149.71C173.153 149.903 173.463 149.81 173.69 149.43L177.13 143.57C177.317 143.243 177.24 142.993 176.9 142.82L172.95 140.85C172.537 140.643 172.433 140.333 172.64 139.92C179.367 126.653 182.273 112.557 181.36 97.63C181.333 97.1967 181.533 96.97 181.96 96.95L203.25 95.7C203.366 95.6938 203.479 95.6642 203.583 95.6131C203.687 95.562 203.78 95.4904 203.855 95.4026C203.931 95.3148 203.988 95.2126 204.023 95.1022C204.058 94.9918 204.071 94.8754 204.06 94.76C203.127 84.1133 200.567 73.8833 196.38 64.07C196.345 63.9868 196.294 63.9114 196.23 63.8484C196.165 63.7855 196.089 63.7362 196.004 63.7035C195.92 63.6708 195.831 63.6554 195.741 63.6583C195.65 63.6611 195.562 63.6821 195.48 63.72L175.85 72.66C175.713 72.7224 175.557 72.7291 175.415 72.6787C175.274 72.6283 175.157 72.5248 175.09 72.39L171.14 64.47C170.933 64.0433 171.037 63.7167 171.45 63.49L190.28 53.19C190.373 53.1386 190.455 53.0685 190.52 52.984C190.584 52.8995 190.631 52.8025 190.656 52.6992C190.682 52.5958 190.685 52.4883 190.667 52.3835C190.649 52.2786 190.609 52.1787 190.55 52.09L185.35 44.18C185.137 43.86 184.877 43.8167 184.57 44.05L161.54 61.71C161.384 61.8292 161.281 62.004 161.251 62.1978C161.221 62.3916 161.267 62.5895 161.38 62.75C165.387 68.5233 168.5 74.7467 170.72 81.42C170.754 81.5297 170.831 81.6215 170.933 81.6757C171.036 81.7298 171.157 81.7422 171.27 81.71L192.49 75.64C192.877 75.5267 193.117 75.6667 193.21 76.06L195.59 85.88C195.677 86.26 195.533 86.49 195.16 86.57L173.75 91.03C173.383 91.1033 173.223 91.3267 173.27 91.7C178.21 129.13 157.55 162.65 121.01 172.55C120.67 172.643 120.54 172.86 120.62 173.2L126.92 201.57C126.945 201.682 126.994 201.788 127.062 201.881C127.13 201.974 127.216 202.052 127.315 202.11C127.415 202.168 127.525 202.205 127.639 202.219C127.754 202.233 127.87 202.223 127.98 202.19L136.05 199.81C137.01 199.53 137.31 198.923 136.95 197.99L129.31 178.21C129.197 177.917 129.287 177.707 129.58 177.58L137.96 174.09C138.333 173.937 138.607 174.043 138.78 174.41L147.88 193.71C147.928 193.812 147.995 193.903 148.079 193.979C148.163 194.054 148.262 194.112 148.369 194.15C148.476 194.187 148.589 194.202 148.703 194.196C148.816 194.189 148.927 194.16 149.03 194.11C159.43 188.943 168.593 182.05 176.52 173.43Z" fill="#FBE6C8" fill-opacity="0.988"/>
<path d="M143.36 54.82L149.14 60.18C149.207 60.2434 149.259 60.3198 149.295 60.4045C149.331 60.4892 149.349 60.5803 149.348 60.6722C149.347 60.7641 149.327 60.8549 149.29 60.9388C149.252 61.0227 149.198 61.098 149.13 61.16L141.61 68.06C141.487 68.1718 141.326 68.2337 141.16 68.2337C140.994 68.2337 140.833 68.1718 140.71 68.06L135.99 63.73C135.863 63.6149 135.784 63.4552 135.771 63.284C135.758 63.1128 135.812 62.9432 135.92 62.81L142.39 54.89C142.448 54.8197 142.519 54.7618 142.6 54.7199C142.681 54.678 142.769 54.6531 142.86 54.6465C142.951 54.64 143.042 54.652 143.128 54.6818C143.214 54.7116 143.293 54.7587 143.36 54.82ZM147.553 60.8663C147.609 60.8056 147.653 60.7345 147.682 60.6569C147.71 60.5793 147.724 60.4968 147.72 60.4141C147.717 60.3314 147.698 60.2502 147.663 60.175C147.629 60.0999 147.58 60.0323 147.519 59.976L143.63 56.3749C143.569 56.3187 143.498 56.275 143.421 56.2463C143.343 56.2176 143.261 56.2045 143.178 56.2077C143.095 56.2108 143.014 56.2303 142.939 56.2648C142.864 56.2994 142.796 56.3484 142.74 56.4091L137.087 62.5137C137.031 62.5745 136.987 62.6456 136.958 62.7232C136.93 62.8008 136.916 62.8833 136.92 62.966C136.923 63.0487 136.942 63.1299 136.977 63.2051C137.011 63.2802 137.06 63.3478 137.121 63.404L141.01 67.0051C141.071 67.0614 141.142 67.1051 141.219 67.1338C141.297 67.1625 141.38 67.1756 141.462 67.1724C141.545 67.1693 141.626 67.1498 141.701 67.1153C141.776 67.0807 141.844 67.0317 141.9 66.9709L147.553 60.8663Z" fill="#FBE6C8" fill-opacity="0.988"/>
<path d="M133.56 68.4399C151.88 83.5799 155.87 111.09 142.47 130.67C127.58 152.44 99.84 157.5 77.5901 143.82C77.4515 143.735 77.2869 143.704 77.1269 143.731C76.9668 143.759 76.8223 143.844 76.7201 143.97L66.3501 156.82C66.2752 156.913 66.1828 156.991 66.0779 157.048C65.9731 157.106 65.8579 157.142 65.7391 157.155C65.6202 157.168 65.4999 157.158 65.3851 157.124C65.2703 157.091 65.1633 157.035 65.0701 156.96L59.3801 152.32C59.0801 152.073 59.0534 151.797 59.3001 151.49L69.7801 138.5C69.9365 138.306 70.0167 138.062 70.0057 137.814C69.9946 137.565 69.8931 137.329 69.7201 137.15C50.7201 117.56 52.4401 86.6899 72.9901 68.7299C90.13 53.7599 116.19 54.0799 133.56 68.4399ZM76.7001 142.37C76.7567 142.297 76.8394 142.248 76.9319 142.233C77.0245 142.218 77.1201 142.239 77.2001 142.29C111.66 165.43 156.77 136 148.47 95.3199C139.22 49.9999 75.7701 45.5999 60.1701 88.7499C53.9901 105.84 58.5101 124.46 71.2001 137.3C71.4801 137.587 71.4967 137.887 71.2501 138.2L60.6801 151.36C60.4334 151.667 60.4601 151.94 60.7601 152.18L65.1401 155.75C65.4734 156.023 65.7767 155.993 66.0501 155.66L76.7001 142.37Z" fill="#FBE6C8" fill-opacity="0.988"/>
<path d="M142.22 104.46C142.22 114.74 138.136 124.599 130.867 131.867C123.599 139.136 113.74 143.22 103.46 143.22C93.18 143.22 83.3214 139.136 76.0525 131.867C68.7836 124.599 64.7 114.74 64.7 104.46C64.7 94.1802 68.7836 84.3214 76.0525 77.0525C83.3214 69.7836 93.18 65.7 103.46 65.7C113.74 65.7 123.599 69.7836 130.867 77.0525C138.136 84.3214 142.22 94.1802 142.22 104.46ZM141.24 104.48C141.24 94.4627 137.261 84.8558 130.177 77.7725C123.094 70.6893 113.487 66.71 103.47 66.71C93.453 66.71 83.8458 70.6893 76.7625 77.7725C69.6793 84.8558 65.7 94.4627 65.7 104.48C65.7 114.497 69.6793 124.104 76.7625 131.187C83.8458 138.271 93.453 142.25 103.47 142.25C113.487 142.25 123.094 138.271 130.177 131.187C137.261 124.104 141.24 114.497 141.24 104.48Z" fill="#FBE6C8" fill-opacity="0.988"/>
<path d="M73.1299 192.1L80.9099 194.44C81.2899 194.553 81.5299 194.417 81.6299 194.03L86.8599 173.18C87.0265 172.5 87.4532 172.233 88.1399 172.38C95.1929 173.92 102.31 174.347 109.49 173.66C109.816 173.631 110.141 173.728 110.396 173.931C110.651 174.135 110.818 174.428 110.86 174.75L114.77 204.78C114.85 205.387 114.583 205.707 113.97 205.74L102.54 206.34C102.14 206.367 101.943 206.18 101.95 205.78L102.41 183.81C102.413 183.722 102.398 183.634 102.367 183.552C102.335 183.47 102.288 183.394 102.228 183.33C102.168 183.266 102.095 183.215 102.015 183.179C101.935 183.142 101.848 183.123 101.76 183.12L94.6199 182.81C94.4949 182.805 94.3719 182.848 94.2779 182.932C94.1829 183.015 94.1229 183.133 94.1099 183.26L92.0899 204.71C92.0789 204.825 92.0449 204.936 91.9899 205.037C91.9349 205.139 91.8599 205.228 91.7699 205.301C91.6799 205.373 91.5759 205.427 91.4639 205.46C91.3529 205.492 91.2359 205.503 91.1199 205.49C79.6332 204.103 68.6699 200.917 58.2299 195.93C58.1685 195.901 58.1138 195.859 58.0689 195.808C58.024 195.757 57.9898 195.697 57.9684 195.631C57.947 195.566 57.9387 195.497 57.9441 195.428C57.9495 195.359 57.9685 195.292 57.9999 195.23L68.0099 175.52C68.027 175.486 68.0373 175.449 68.04 175.411C68.0428 175.372 68.038 175.334 68.0259 175.298C68.0138 175.262 67.9947 175.228 67.9697 175.199C67.9446 175.171 67.9141 175.147 67.8799 175.13C54.8732 168.59 44.3232 159.263 36.2299 147.15C36.1826 147.077 36.1212 147.015 36.0492 146.967C35.9773 146.919 35.8963 146.886 35.8112 146.87C35.7262 146.854 35.6388 146.856 35.5543 146.875C35.4699 146.894 35.3901 146.929 35.3199 146.98L31.7899 149.46C31.3832 149.74 31.0599 149.667 30.8199 149.24L26.3799 141.48C26.1465 141.08 26.2399 140.783 26.6599 140.59L30.1499 138.96C30.4507 138.818 30.6841 138.564 30.8001 138.254C30.916 137.944 30.9052 137.601 30.7699 137.3C26.6832 128.287 24.2665 118.837 23.5199 108.95C23.4968 108.643 23.3537 108.358 23.1216 108.155C22.8895 107.953 22.5871 107.851 22.2799 107.87L10.2399 108.65C10.1487 108.655 10.0595 108.678 9.97754 108.719C9.89564 108.759 9.82254 108.815 9.76284 108.884C9.70314 108.953 9.65794 109.034 9.62994 109.12C9.60194 109.207 9.59174 109.299 9.59994 109.39C10.3265 118.17 12.0799 126.737 14.8599 135.09C14.9865 135.463 14.8665 135.72 14.4999 135.86L7.21994 138.75C7.14464 138.78 7.06414 138.794 6.98294 138.793C6.90184 138.791 6.82164 138.772 6.74714 138.739C6.67274 138.705 6.60544 138.657 6.54924 138.597C6.49304 138.537 6.44904 138.467 6.41994 138.39C1.53994 125.003 -0.43346 111.173 0.49994 96.9C0.51994 96.5533 0.70324 96.3967 1.04994 96.43L22.6999 98.21C22.8899 98.2268 23.0792 98.1686 23.2283 98.0474C23.3774 97.9263 23.4747 97.7517 23.4999 97.56L24.3399 90.87C24.3659 90.6716 24.3136 90.4708 24.1941 90.3103C24.0747 90.1498 23.8974 90.0421 23.6999 90.01L2.07994 86.6C2.01964 86.5907 1.96184 86.5689 1.91044 86.536C1.85894 86.5032 1.81494 86.46 1.78104 86.4092C1.74724 86.3584 1.72424 86.3012 1.71374 86.241C1.70324 86.1809 1.70534 86.1193 1.71994 86.06L4.29994 74.69C4.32364 74.5853 4.36904 74.4867 4.43314 74.4004C4.49734 74.3141 4.57894 74.2419 4.67274 74.1884C4.76664 74.1349 4.87084 74.1012 4.97874 74.0894C5.08664 74.0776 5.19594 74.0881 5.29994 74.12L34.9299 83.5C35.2632 83.6 35.3832 83.82 35.2899 84.16C26.6099 114.76 39.2099 146.49 66.0299 163.45C70.0199 165.97 74.6899 168.05 79.2799 169.92C79.6465 170.067 79.7665 170.327 79.6399 170.7L72.7799 191.42C72.7567 191.488 72.7474 191.559 72.7526 191.63C72.7577 191.702 72.7772 191.771 72.8099 191.835C72.8426 191.898 72.8878 191.954 72.9428 192C72.9978 192.046 73.0614 192.08 73.1299 192.1ZM36.6199 145.85C44.6799 158.363 55.3965 167.87 68.7699 174.37C68.8638 174.415 68.9476 174.479 69.0166 174.558C69.0856 174.636 69.1384 174.728 69.1718 174.827C69.2053 174.927 69.2188 175.032 69.2116 175.137C69.2044 175.242 69.1766 175.345 69.1299 175.44L59.4899 194.77C59.4548 194.841 59.4344 194.919 59.43 194.998C59.4257 195.078 59.4374 195.157 59.4645 195.232C59.4916 195.306 59.5335 195.375 59.5877 195.433C59.6419 195.491 59.7072 195.538 59.7799 195.57C69.5399 200.117 79.7632 203.057 90.4499 204.39C90.5409 204.401 90.6339 204.394 90.7229 204.368C90.8109 204.343 90.8939 204.3 90.9659 204.242C91.0379 204.185 91.0969 204.113 91.1409 204.032C91.1839 203.951 91.2109 203.862 91.2199 203.77L93.2099 182.23C93.2429 181.897 93.4269 181.737 93.7599 181.75L102.75 182.14C103.13 182.16 103.317 182.36 103.31 182.74L102.94 204.31C102.927 205.077 103.3 205.433 104.06 205.38L113.04 204.78C113.138 204.774 113.235 204.748 113.322 204.703C113.41 204.658 113.488 204.595 113.551 204.518C113.614 204.441 113.66 204.352 113.688 204.256C113.715 204.16 113.723 204.059 113.71 203.96L109.87 175.03C109.857 174.923 109.803 174.825 109.719 174.758C109.635 174.69 109.527 174.659 109.42 174.67C102.34 175.357 95.3229 174.95 88.3699 173.45C87.9965 173.37 87.7632 173.517 87.6699 173.89L82.3899 195.19C82.2899 195.577 82.0465 195.717 81.6599 195.61L71.9899 192.83C71.9091 192.806 71.8339 192.766 71.7688 192.713C71.7037 192.659 71.65 192.593 71.6108 192.519C71.5717 192.444 71.5479 192.362 71.5408 192.279C71.5338 192.195 71.5437 192.11 71.5699 192.03L78.4299 171.22C78.5499 170.853 78.4299 170.6 78.0699 170.46C43.1199 156.79 24.8699 121.36 34.1199 84.84C34.2132 84.4933 34.0865 84.2667 33.7399 84.16L5.79994 75.34C5.37324 75.2067 5.11324 75.3567 5.01994 75.79L2.91994 85.09C2.90134 85.1734 2.90014 85.2598 2.91654 85.3439C2.93284 85.4279 2.96634 85.5079 3.01504 85.579C3.06364 85.6501 3.12644 85.7108 3.19944 85.7574C3.27254 85.804 3.35434 85.8355 3.43994 85.85L25.0299 89.2C25.3499 89.2533 25.4932 89.4433 25.4599 89.77L24.4199 98.72C24.3972 98.8904 24.3108 99.0457 24.1787 99.1537C24.0465 99.2616 23.8787 99.314 23.7099 99.3L2.23994 97.5C2.12504 97.4904 2.00944 97.5044 1.90004 97.5409C1.79074 97.5774 1.68994 97.6358 1.60394 97.7125C1.51784 97.7892 1.44834 97.8826 1.39944 97.9871C1.35064 98.0915 1.32364 98.2048 1.31994 98.32C0.746539 111.64 2.63654 124.59 6.98994 137.17C7.01684 137.247 7.05914 137.319 7.11414 137.379C7.16914 137.44 7.23574 137.489 7.30984 137.522C7.38384 137.556 7.46374 137.574 7.54464 137.576C7.62554 137.577 7.70554 137.561 7.77994 137.53L13.4399 135.3C13.7665 135.173 13.8732 134.943 13.7599 134.61C10.8665 126.077 9.13994 117.313 8.57994 108.32C8.55994 107.973 8.72324 107.79 9.06994 107.77L22.2899 106.89C22.8124 106.854 23.3283 107.026 23.7266 107.368C24.1249 107.71 24.3738 108.196 24.4199 108.72C25.2465 118.267 27.4999 127.29 31.1799 135.79C32.5299 138.91 31.1299 139.71 28.5199 140.77C27.7599 141.077 27.5832 141.587 27.9899 142.3L31.0399 147.61C31.1022 147.719 31.1863 147.813 31.2869 147.888C31.3875 147.962 31.5024 148.015 31.6244 148.044C31.7465 148.072 31.873 148.074 31.9961 148.051C32.1192 148.028 32.2362 147.98 32.3399 147.91L35.6999 145.66C36.0732 145.413 36.3799 145.477 36.6199 145.85Z" fill="#FBE6C8" fill-opacity="0.988"/>
<path d="M53.1901 88.8101L51.7101 94.9001C51.6649 95.0812 51.5537 95.239 51.3984 95.3426C51.243 95.4461 51.0547 95.488 50.8701 95.4601L40.9901 93.8901C40.8887 93.8736 40.7918 93.8364 40.7053 93.7809C40.6189 93.7254 40.5448 93.6527 40.4876 93.5674C40.4304 93.4821 40.3914 93.386 40.3729 93.2849C40.3544 93.1839 40.3568 93.0801 40.3801 92.9801L42.0701 85.4501C42.0929 85.3485 42.1366 85.2529 42.1984 85.1691C42.2601 85.0854 42.3387 85.0155 42.429 84.9637C42.5193 84.912 42.6193 84.8796 42.7228 84.8687C42.8263 84.8577 42.9309 84.8684 43.0301 84.9001L52.6901 87.9201C52.8704 87.9779 53.0221 88.1018 53.1148 88.2669C53.2076 88.432 53.2345 88.626 53.1901 88.8101ZM51.9801 89.4401C52.0211 89.2653 51.9943 89.0815 51.9053 88.9257C51.8162 88.7698 51.6714 88.6535 51.5001 88.6001L43.6501 86.1201C43.5561 86.0916 43.4573 86.0829 43.3599 86.0946C43.2624 86.1062 43.1684 86.138 43.0839 86.1878C42.9993 86.2376 42.926 86.3044 42.8685 86.3839C42.8111 86.4635 42.7707 86.5541 42.7501 86.6501L41.5501 92.2401C41.5299 92.3349 41.5294 92.4328 41.5485 92.5279C41.5676 92.6229 41.606 92.713 41.6613 92.7927C41.7165 92.8723 41.7875 92.9398 41.8699 92.9909C41.9522 93.0421 42.0442 93.0758 42.1401 93.0901L50.1901 94.3001C50.3669 94.3275 50.5476 94.287 50.6959 94.1869C50.8443 94.0868 50.9493 93.9343 50.9901 93.7601L51.9801 89.4401Z" fill="#FBE6C8" fill-opacity="0.988"/>
<path d="M205.44 107.17L204.53 118.64C204.524 118.721 204.501 118.801 204.463 118.873C204.425 118.945 204.372 119.008 204.308 119.059C204.245 119.11 204.171 119.147 204.092 119.168C204.013 119.188 203.931 119.193 203.85 119.18L195.83 117.87C195.682 117.845 195.55 117.765 195.459 117.647C195.368 117.528 195.325 117.379 195.34 117.23L196.28 106.97C196.295 106.824 196.364 106.689 196.473 106.591C196.582 106.493 196.723 106.439 196.87 106.44L204.86 106.53C204.941 106.531 205.021 106.549 205.095 106.582C205.169 106.615 205.235 106.664 205.289 106.724C205.344 106.784 205.385 106.854 205.411 106.931C205.437 107.008 205.447 107.089 205.44 107.17ZM204.492 108.336C204.506 108.186 204.459 108.036 204.363 107.92C204.266 107.803 204.128 107.73 203.977 107.716L197.843 107.147C197.693 107.133 197.543 107.18 197.427 107.276C197.31 107.373 197.237 107.512 197.223 107.662L196.388 116.663C196.374 116.814 196.421 116.964 196.517 117.08C196.614 117.196 196.753 117.27 196.903 117.284L203.037 117.853C203.187 117.867 203.337 117.82 203.453 117.724C203.57 117.627 203.643 117.488 203.657 117.338L204.492 108.336Z" fill="#FBE6C8" fill-opacity="0.988"/>
<path d="M198.762 140.24C198.694 140.45 198.546 140.624 198.35 140.724C198.154 140.824 197.927 140.842 197.717 140.775L190.599 138.476C190.39 138.408 190.216 138.26 190.115 138.064C190.015 137.868 189.997 137.64 190.064 137.431L193.298 127.42C193.366 127.211 193.514 127.037 193.71 126.936C193.906 126.836 194.133 126.818 194.343 126.885L201.461 129.184C201.67 129.252 201.844 129.4 201.945 129.596C202.045 129.792 202.063 130.02 201.995 130.229L198.762 140.24ZM200.847 130.723C200.899 130.567 200.887 130.397 200.813 130.25C200.739 130.103 200.61 129.991 200.454 129.939L194.818 128.064C194.662 128.012 194.492 128.025 194.345 128.098C194.198 128.172 194.086 128.301 194.034 128.457L191.193 136.997C191.141 137.153 191.153 137.323 191.227 137.47C191.301 137.617 191.43 137.729 191.586 137.781L197.222 139.656C197.378 139.708 197.548 139.695 197.695 139.622C197.842 139.548 197.954 139.419 198.006 139.263L200.847 130.723Z" fill="#FBE6C8" fill-opacity="0.988"/>
<path d="M16.1999 158.8L10.7299 148.94C10.6807 148.851 10.6505 148.753 10.6411 148.651C10.6317 148.55 10.6433 148.448 10.6753 148.351C10.7072 148.254 10.7587 148.165 10.8266 148.089C10.8945 148.013 10.9773 147.952 11.0699 147.91L18.0899 144.62C18.2594 144.541 18.4527 144.529 18.6309 144.586C18.809 144.644 18.9587 144.767 19.0499 144.93L23.9799 153.72C24.0713 153.883 24.0973 154.075 24.0528 154.257C24.0082 154.439 23.8964 154.597 23.7399 154.7L17.2599 159.06C17.1745 159.117 17.0782 159.156 16.9771 159.173C16.876 159.191 16.7723 159.188 16.6727 159.163C16.573 159.139 16.4794 159.094 16.3981 159.031C16.3167 158.969 16.2492 158.89 16.1999 158.8ZM18.518 146.028C18.4241 145.859 18.2668 145.734 18.0807 145.68C17.8946 145.627 17.6949 145.65 17.5256 145.743L12.4703 148.546C12.301 148.64 12.1759 148.797 12.1225 148.983C12.0692 149.169 12.0919 149.369 12.1858 149.538L16.4618 157.252C16.5556 157.421 16.7129 157.547 16.899 157.6C17.0852 157.653 17.2848 157.631 17.4542 157.537L22.5095 154.734C22.6788 154.641 22.8039 154.483 22.8572 154.297C22.9106 154.111 22.8878 153.911 22.794 153.742L18.518 146.028Z" fill="#FBE6C8" fill-opacity="0.988"/>
<path d="M188.454 160.352C188.32 160.577 188.101 160.74 187.847 160.805C187.592 160.869 187.323 160.83 187.097 160.695L180.895 156.998C180.784 156.932 180.686 156.844 180.609 156.74C180.531 156.635 180.475 156.517 180.443 156.391C180.411 156.265 180.404 156.134 180.423 156.005C180.441 155.876 180.485 155.753 180.552 155.641L185.806 146.828C185.94 146.602 186.159 146.44 186.413 146.375C186.668 146.311 186.937 146.35 187.163 146.485L193.364 150.182C193.476 150.248 193.574 150.336 193.651 150.44C193.729 150.544 193.785 150.663 193.817 150.789C193.849 150.915 193.856 151.046 193.837 151.175C193.818 151.303 193.775 151.427 193.708 151.539L188.454 160.352ZM192.548 151.651C192.642 151.491 192.669 151.3 192.623 151.121C192.576 150.941 192.46 150.787 192.3 150.693L187.217 147.698C187.057 147.604 186.866 147.577 186.686 147.624C186.506 147.67 186.352 147.786 186.258 147.946L181.792 155.529C181.698 155.689 181.671 155.879 181.717 156.059C181.764 156.239 181.88 156.393 182.04 156.487L187.123 159.481C187.283 159.576 187.474 159.602 187.654 159.556C187.834 159.51 187.988 159.394 188.082 159.234L192.548 151.651Z" fill="#FBE6C8" fill-opacity="0.988"/>
<path d="M116.54 164.84L114.35 154.99C114.312 154.811 114.342 154.625 114.435 154.468C114.527 154.31 114.675 154.193 114.85 154.14L120.87 152.24C121.048 152.185 121.24 152.199 121.407 152.281C121.575 152.363 121.704 152.506 121.77 152.68L125.45 162.14C125.486 162.233 125.503 162.332 125.499 162.432C125.495 162.532 125.471 162.63 125.428 162.72C125.385 162.809 125.324 162.89 125.248 162.955C125.173 163.021 125.085 163.07 124.99 163.1L117.46 165.38C117.364 165.408 117.263 165.417 117.164 165.405C117.065 165.393 116.969 165.36 116.883 165.31C116.796 165.259 116.722 165.191 116.663 165.11C116.604 165.03 116.562 164.938 116.54 164.84ZM121.581 154.085C121.546 153.969 121.488 153.862 121.411 153.768C121.335 153.675 121.24 153.598 121.134 153.541C121.027 153.485 120.91 153.449 120.79 153.438C120.67 153.426 120.548 153.439 120.433 153.474L115.881 154.866C115.765 154.901 115.658 154.959 115.564 155.035C115.471 155.112 115.394 155.207 115.337 155.313C115.281 155.42 115.245 155.537 115.234 155.657C115.222 155.777 115.234 155.899 115.27 156.014L117.539 163.435C117.574 163.551 117.632 163.658 117.709 163.751C117.785 163.845 117.88 163.922 117.986 163.979C118.093 164.035 118.21 164.07 118.33 164.082C118.451 164.094 118.572 164.081 118.687 164.046L123.239 162.654C123.355 162.619 123.462 162.561 123.556 162.484C123.649 162.408 123.726 162.313 123.783 162.206C123.839 162.1 123.875 161.983 123.886 161.863C123.898 161.742 123.886 161.621 123.85 161.506L121.581 154.085Z" fill="#FBE6C8" fill-opacity="0.988"/>
<path d="M37.316 170.343C37.3923 170.427 37.4318 170.539 37.4258 170.653C37.4199 170.767 37.3689 170.873 37.2842 170.95L31.1458 176.477C31.061 176.553 30.9495 176.593 30.8356 176.587C30.7217 176.581 30.6149 176.53 30.5386 176.445L23.0042 168.077C22.9279 167.992 22.8884 167.881 22.8944 167.767C22.9003 167.653 22.9513 167.546 23.036 167.47L29.1744 161.943C29.2592 161.867 29.3707 161.827 29.4846 161.833C29.5985 161.839 29.7053 161.89 29.7816 161.975L37.316 170.343ZM29.8144 163.491C29.6966 163.361 29.5322 163.284 29.3574 163.276C29.1825 163.268 29.0116 163.329 28.8821 163.447L24.533 167.404C24.4689 167.463 24.4169 167.533 24.38 167.611C24.3431 167.69 24.322 167.775 24.3179 167.861C24.3139 167.948 24.3269 168.034 24.3562 168.116C24.3856 168.198 24.4308 168.272 24.4891 168.337L30.5058 174.949C30.6236 175.078 30.788 175.156 30.9628 175.164C31.1377 175.172 31.3086 175.111 31.4381 174.993L35.7872 171.036C35.8513 170.977 35.9033 170.907 35.9402 170.828C35.9771 170.75 35.9982 170.665 36.0023 170.578C36.0063 170.492 35.9933 170.405 35.964 170.324C35.9346 170.242 35.8894 170.167 35.8311 170.103L29.8144 163.491Z" fill="#FBE6C8" fill-opacity="0.988"/>
<path d="M49.2454 190.283C49.1148 190.467 48.9166 190.591 48.6943 190.629C48.472 190.666 48.2439 190.614 48.0602 190.483L39.5502 184.436C39.3665 184.305 39.2421 184.107 39.2045 183.885C39.167 183.662 39.2192 183.434 39.3498 183.251L43.6944 177.137C43.825 176.953 44.0232 176.829 44.2455 176.791C44.4678 176.754 44.6958 176.806 44.8796 176.937L53.3896 182.984C53.5733 183.115 53.6977 183.313 53.7352 183.535C53.7728 183.758 53.7206 183.986 53.59 184.17L49.2454 190.283ZM52.3844 184.237C52.429 184.176 52.4609 184.106 52.4784 184.032C52.496 183.957 52.4987 183.881 52.4865 183.805C52.4744 183.73 52.4475 183.658 52.4075 183.593C52.3675 183.529 52.3151 183.472 52.2533 183.428L44.905 178.128C44.8432 178.083 44.7733 178.051 44.6992 178.034C44.625 178.016 44.5482 178.014 44.473 178.026C44.3978 178.038 44.3258 178.065 44.2609 178.105C44.1961 178.145 44.1399 178.197 44.0953 178.259L40.5154 183.223C40.4708 183.285 40.4389 183.355 40.4214 183.429C40.4038 183.503 40.4011 183.58 40.4133 183.655C40.4254 183.73 40.4523 183.802 40.4923 183.867C40.5323 183.932 40.5847 183.988 40.6465 184.032L47.9948 189.332C48.0566 189.377 48.1265 189.409 48.2006 189.426C48.2748 189.444 48.3516 189.447 48.4268 189.434C48.502 189.422 48.574 189.395 48.6388 189.355C48.7037 189.315 48.7599 189.263 48.8045 189.201L52.3844 184.237Z" fill="#FBE6C8" fill-opacity="0.988"/>
</svg>
